<?xml version="1.0" encoding="UTF-8" standalone="no"?>
<!-- Generator: Adobe Illustrator 18.1.1, SVG Export Plug-In . SVG Version: 6.00 Build 0)  -->

<svg
   version="1.1"
   id="Capa_1"
   x="0px"
   y="0px"
   viewBox="0 0 1024 1024"
   xml:space="preserve"
   sodipodi:docname="a_up.svg"
   width="1024"
   height="1024"
   inkscape:version="1.1.1 (3bf5ae0d25, 2021-09-20)"
   xmlns:inkscape="http://www.inkscape.org/namespaces/inkscape"
   xmlns:sodipodi="http://sodipodi.sourceforge.net/DTD/sodipodi-0.dtd"
   xmlns="http://www.w3.org/2000/svg"
   xmlns:svg="http://www.w3.org/2000/svg"><defs
   id="defs3382" /><sodipodi:namedview
   id="namedview3380"
   pagecolor="#ffffff"
   bordercolor="#666666"
   borderopacity="1.0"
   inkscape:pageshadow="2"
   inkscape:pageopacity="0.0"
   inkscape:pagecheckerboard="0"
   showgrid="false"
   inkscape:zoom="0.46618677"
   inkscape:cx="342.13755"
   inkscape:cy="539.48335"
   inkscape:window-width="2560"
   inkscape:window-height="1387"
   inkscape:window-x="1912"
   inkscape:window-y="-8"
   inkscape:window-maximized="1"
   inkscape:current-layer="Capa_1" />
















<g
   id="g1017"
   transform="matrix(0.79166667,0,0,0.79166667,116.47053,109.98534)"><path
     id="path1109-1-9-1"
     style="fill:#000000;fill-opacity:1;stroke:#000000;stroke-width:16.7767;stroke-linecap:round;stroke-linejoin:round;stroke-miterlimit:4;stroke-dasharray:none;stroke-opacity:1;paint-order:stroke markers fill"
     d="m 499.61618,212.89296 c -161.10688,0 -291.59613,58.6553 -291.59613,131.07334 0,72.41806 130.48925,131.07335 291.59613,131.07335 161.10687,0 291.59612,-58.65529 291.59612,-131.07335 0,-72.41804 -130.48925,-131.07334 -291.59612,-131.07334 M 208.02005,409.50301 v 98.305 c 0,72.41799 130.48925,131.07334 291.59613,131.07334 161.10687,0 291.59612,-58.65535 291.59612,-131.07334 v -98.305 c 0,72.41799 -130.48925,131.07329 -291.59612,131.07329 -161.10688,0 -291.59613,-58.6553 -291.59613,-131.07329 m 0,163.84164 v 98.305 c 0,72.41811 130.48925,131.07338 291.59613,131.07338 161.10687,0 291.59612,-58.65527 291.59612,-131.07338 v -98.305 c 0,72.41805 -130.48925,131.07329 -291.59612,131.07329 -161.10688,0 -291.59613,-58.65524 -291.59613,-131.07329 z m 0,-230.10367 v 98.305 c 0,72.41805 130.48925,131.07341 291.59619,131.07341 161.10681,0 291.59606,-58.65536 291.59606,-131.07341 v -98.305 c 0,72.418 -130.48925,131.07329 -291.59606,131.07329 -161.10694,0 -291.59619,-58.65529 -291.59619,-131.07329 m 0,163.972 v 98.30506 c 0,72.41805 130.48925,131.07341 291.59619,131.07341 161.10681,0 291.59606,-58.65536 291.59606,-131.07347 v -98.305 c 0,72.41812 -130.48925,131.07341 -291.59606,131.07341 -161.10694,0 -291.59619,-58.65529 -291.59619,-131.07341 z" /><path
     d="m 499.61618,212.89295 c -161.10688,0 -291.59614,58.65531 -291.59614,131.07335 0,72.41799 130.48926,131.07335 291.59614,131.07335 161.10687,0 291.59612,-58.65536 291.59612,-131.07335 0,-72.41804 -130.48925,-131.07335 -291.59612,-131.07335 m -291.59614,196.61 v 98.30499 c 0,72.41806 130.48926,131.07341 291.59614,131.07341 161.10687,0 291.59612,-58.65535 291.59612,-131.07341 v -98.30499 c 0,72.41805 -130.48925,131.07335 -291.59612,131.07335 -161.10688,0 -291.59614,-58.6553 -291.59614,-131.07335 m 0,163.8417 v 98.305 c 0,72.41809 130.48926,131.07339 291.59614,131.07339 161.10687,0 291.59612,-58.6553 291.59612,-131.07339 v -98.305 c 0,72.41799 -130.48925,131.07329 -291.59612,131.07329 -161.10688,0 -291.59614,-58.6553 -291.59614,-131.07329 z"
     id="path1109-60-2"
     style="fill:#ae2073;fill-opacity:1;stroke:none;stroke-width:16.7767;stroke-linecap:round;stroke-linejoin:round;stroke-miterlimit:4;stroke-dasharray:none;stroke-opacity:1;paint-order:stroke markers fill" /><path
     id="path3733-5-0-6-1"
     style="fill:#7488e5;fill-opacity:1;stroke:#000000;stroke-width:8.1124;stroke-linecap:round;stroke-linejoin:round;stroke-miterlimit:4;stroke-dasharray:none;stroke-opacity:1;paint-order:normal"
     d="m 203.67237,343.25286 v 98.29784 c 0,72.41279 132.43488,131.06384 295.94387,131.06384 163.50891,0 295.94373,-58.65105 295.94373,-131.06384 v -98.29784 c 0,72.41278 -132.43482,131.06377 -295.94373,131.06377 -163.50899,0 -295.94387,-58.65099 -295.94387,-131.06377 m 0,163.96012 v 98.2979 c 0,72.41272 132.43488,131.06377 295.94387,131.06377 163.50891,0 295.94373,-58.65105 295.94373,-131.06383 v -98.29784 c 0,72.41278 -132.43482,131.06383 -295.94373,131.06383 -163.50899,0 -295.94387,-58.65105 -295.94387,-131.06383 z" /><path
     d="m 453.84576,474.67236 28.80648,55.26588 c 12.80298,-22.40508 32.22071,-40.75591 55.47929,-52.91868 l -16.43037,-70.2026 83.00552,-83.00553 c 12.37611,-12.58951 12.37611,-33.28754 0,-45.27954 -12.37617,-11.99207 -32.86086,-12.50417 -45.23697,0 l -83.00547,83.04816 -196.31118,-45.23698 -30.08685,30.08685 158.54264,82.79212 -83.00553,83.21887 -52.91868,-7.46836 -22.61843,22.61849 67.85535,37.55514 37.76855,68.06875 22.40508,-22.61843 -7.25496,-53.34543 83.00553,-82.57871 m 148.30031,29.23329 c 53.34543,0 96.02173,42.67636 96.02173,96.02179 0,18.77757 -5.3345,36.48831 -14.72331,51.21162 l 65.72153,66.14835 -29.65997,29.66004 -66.5751,-65.50826 c -14.72338,9.17548 -32.22071,14.51004 -50.78488,14.51004 -53.34548,0 -96.02179,-42.67637 -96.02179,-96.02179 0,-53.34543 42.67631,-96.02179 96.02179,-96.02179 m 0,42.67636 c -29.44669,0 -53.34548,23.89873 -53.34548,53.34543 0,29.44663 23.89879,53.34542 53.34548,53.34542 29.44664,0 53.34543,-23.89879 53.34543,-53.34542 0,-29.4467 -23.89879,-53.34543 -53.34543,-53.34543"
     id="path1558-0"
     style="fill:#ffffff;fill-opacity:1;stroke:#030303;stroke-width:9.0991;stroke-linecap:round;stroke-linejoin:round;stroke-miterlimit:4;stroke-dasharray:none;stroke-opacity:1;paint-order:fill markers stroke" /></g><path
   style="fill:#000000;fill-opacity:1;stroke:#ffffff;stroke-width:14.9291;stroke-linejoin:round;stroke-miterlimit:4;stroke-dasharray:none;stroke-opacity:1"
   d="m 935.80974,239.55087 80.72566,-80.72566 V 411.09292 H 764.2677 L 865.17479,310.18583 C 795.04436,189.60186 660.83794,108.37167 511.99998,108.37167 c -222.50013,0 -403.62833,181.1282 -403.62833,403.62833 0,222.50012 181.1282,403.62832 403.62833,403.62832 148.83796,0 279.0081,-81.2302 349.13853,-201.81418 H 974.15443 C 895.95145,891.91516 718.85951,1016.5354 511.99998,1016.5354 234.50549,1016.5354 7.4645545,789.49447 7.4645545,512 7.4645545,234.50551 234.50549,7.4645545 511.99998,7.4645545 c 178.10102,0 334.00246,92.3300025 423.80976,232.0863155 z"
   id="path1300" /></svg>
